<svg width="16" height="14" viewBox="0 0 16 14" fill="none" xmlns="http://www.w3.org/2000/svg">
<path d="M14.9546 5.87536L11.8401 8.91136L12.5756 13.1994C12.6076 13.3869 12.5306 13.5764 12.3766 13.6884C12.2896 13.7519 12.1861 13.7839 12.0826 13.7839C12.0031 13.7839 11.9231 13.7649 11.8501 13.7264L7.9991 11.7019L4.1486 13.7259C3.9806 13.8149 3.7761 13.8004 3.6221 13.6879C3.4681 13.5759 3.3911 13.3864 3.4231 13.1989L4.1586 8.91086L1.0436 5.87536C0.907602 5.74236 0.858102 5.54336 0.917102 5.36286C0.976102 5.18236 1.1326 5.04986 1.3211 5.02236L5.6256 4.39736L7.5506 0.496359C7.7191 0.154859 8.2791 0.154859 8.4476 0.496359L10.3726 4.39736L14.6771 5.02236C14.8656 5.04986 15.0221 5.18186 15.0811 5.36286C15.1401 5.54386 15.0906 5.74186 14.9546 5.87536Z" fill="#6D6D6D"/>
</svg>
